<svg width="35" height="46" viewBox="0 0 35 46" fill="none" xmlns="http://www.w3.org/2000/svg">
<path fill-rule="evenodd" clip-rule="evenodd" d="M17.8721 0.950562L0.87207 13.3276L7.80207 18.6576H15.3591L17.8661 10.9306L20.3741 18.6576H27.9541L34.8721 13.3276L17.8721 0.950562Z" fill="#046CD5"/>
<path fill-rule="evenodd" clip-rule="evenodd" d="M27.9541 18.6545H27.9581L21.9241 23.4285L24.4321 31.1535L17.8661 26.3785L11.3001 31.1535L13.8081 23.4285L7.80107 18.6545L0.87207 13.3265V32.9715L17.8721 45.3265L34.8721 32.9715V13.3265L27.9541 18.6545Z" fill="#333333"/>
<path fill-rule="evenodd" clip-rule="evenodd" d="M15.3589 18.6576H7.80225L13.8081 23.4286L11.3003 31.1536L17.8662 26.3785L24.4321 31.1536L21.9238 23.4286L27.9541 18.6545L20.374 18.6576L17.8662 10.9305L15.3589 18.6576Z" fill="white"/>
</svg>
